<svg xmlns="http://www.w3.org/2000/svg" width="76" height="76" fill="none" viewBox="0 0 76 76"><g filter="url(#atl-__a)"><circle cx="38" cy="34" r="28" fill="#0057ff"/></g><path fill="#fff" d="M24.175 31.576c0-4.894 0-7.341.58-8.164.58-.824 2.889-1.611 7.508-3.187l.88-.3c2.407-.821 3.61-1.232 4.857-1.232s2.45.41 4.858 1.232l.88.3c4.618 1.575 6.928 2.363 7.508 3.186.58.824.58 3.271.58 8.165v2.41c0 8.63-6.512 12.819-10.598 14.597-1.108.483-1.662.724-3.228.724s-2.12-.242-3.228-.724c-4.085-1.778-10.597-5.966-10.597-14.596z"/><defs><filter id="atl-__a" width="76" height="76" x="0" y="0" color-interpolation-filters="sRGB" filterUnits="userSpaceOnUse"><feFlood flood-opacity="0" result="BackgroundImageFix"/><feColorMatrix in="SourceAlpha" result="hardAlpha" values="0 0 0 0 0 0 0 0 0 0 0 0 0 0 0 0 0 0 127 0"/><feOffset dy="4"/><feGaussianBlur stdDeviation="5"/><feComposite in2="hardAlpha" operator="out"/><feColorMatrix values="0 0 0 0 0.0196078 0 0 0 0 0.0588235 0 0 0 0 0.0980392 0 0 0 0.2 0"/><feBlend in2="BackgroundImageFix" result="effect1_dropShadow_99_443"/><feBlend in="SourceGraphic" in2="effect1_dropShadow_99_443" result="shape"/><feColorMatrix in="SourceAlpha" result="hardAlpha" values="0 0 0 0 0 0 0 0 0 0 0 0 0 0 0 0 0 0 127 0"/><feOffset dy="4"/><feGaussianBlur stdDeviation="3"/><feComposite in2="hardAlpha" k2="-1" k3="1" operator="arithmetic"/><feColorMatrix values="0 0 0 0 1 0 0 0 0 1 0 0 0 0 1 0 0 0 0.35 0"/><feBlend in2="shape" result="effect2_innerShadow_99_443"/></filter></defs></svg>