<svg xmlns="http://www.w3.org/2000/svg" width="256" height="256" fill="none" viewBox="0 0 256 256"><g clip-path="url(#atl-__a)"><rect width="256" height="256" fill="#54fff5" rx="20"/><g filter="url(#atl-__b)"><path fill="#fff" d="M13.48 198.605c-42.807 120.438 186.182 86.422 306.027 54.359 122.658-40.705 37.879-220.137-50.092-224.108s10.907 82.968-63.82 107.8S66.991 48.058 13.481 198.605"/></g><g filter="url(#atl-__c)"><path fill="#00fff0" fill-opacity=".67" d="M85.512-45.822C63.056-107.176-16.918-23.995-54.1 25.264c-35.466 53.584 57.108 99.888 93.42 74.773 36.311-25.114-31.547-30-9.95-62.658 21.596-32.658 84.21-6.51 56.14-83.201"/></g><g filter="url(#atl-__d)"><path fill="#9d81ff" d="M96.48 225.424c-30.63-103.061-162.562-48.787-224.699-8.767-59.771 47.385 82.148 183.691 141.092 176.719 58.943-6.973-47.285-66.311-10.886-95.206s132.779 56.079 94.493-72.746"/></g><g filter="url(#atl-__e)"><path fill="#4d94ff" d="M282.12-107.353c-66.073-78.678-160.657-13.617-199.69 28.748C48.274-30.645 224.275 57.231 273.12 42.171S206.512-4.05 227.297-33.288s137.415 24.282 54.823-74.065"/></g><path fill="#000" fill-rule="evenodd" d="M93.19 152.836h43.484l-49.465-49.785 50.101-49.785L150.955 40h-45.136L48.336 97.777a7.435 7.435 0 0 0 .03 10.522zm26.14-49.668h-.335l.331-.004zm0 0 49.461 49.781-50.101 49.785L105.045 216h45.136l57.483-57.774a7.434 7.434 0 0 0-.03-10.521l-44.823-44.537z" clip-rule="evenodd"/></g><defs><filter id="atl-__b" width="569.558" height="451.431" x="-90.241" y="-69.737" color-interpolation-filters="sRGB" filterUnits="userSpaceOnUse"><feFlood flood-opacity="0" result="BackgroundImageFix"/><feBlend in="SourceGraphic" in2="BackgroundImageFix" result="shape"/><feGaussianBlur result="effect1_foregroundBlur_1899_48" stdDeviation="49.231"/></filter><filter id="atl-__c" width="351.596" height="371.507" x="-160.511" y="-165.987" color-interpolation-filters="sRGB" filterUnits="userSpaceOnUse"><feFlood flood-opacity="0" result="BackgroundImageFix"/><feBlend in="SourceGraphic" in2="BackgroundImageFix" result="shape"/><feGaussianBlur result="effect1_foregroundBlur_1899_48" stdDeviation="49.231"/></filter><filter id="atl-__d" width="444.851" height="424.452" x="-241.077" y="67.642" color-interpolation-filters="sRGB" filterUnits="userSpaceOnUse"><feFlood flood-opacity="0" result="BackgroundImageFix"/><feBlend in="SourceGraphic" in2="BackgroundImageFix" result="shape"/><feGaussianBlur result="effect1_foregroundBlur_1899_48" stdDeviation="49.231"/></filter><filter id="atl-__e" width="430.191" height="385.105" x="-20.397" y="-242.758" color-interpolation-filters="sRGB" filterUnits="userSpaceOnUse"><feFlood flood-opacity="0" result="BackgroundImageFix"/><feBlend in="SourceGraphic" in2="BackgroundImageFix" result="shape"/><feGaussianBlur result="effect1_foregroundBlur_1899_48" stdDeviation="49.231"/></filter><clipPath id="atl-__a"><rect width="256" height="256" fill="#fff" rx="20"/></clipPath></defs></svg>