<svg xmlns="http://www.w3.org/2000/svg" width="513" height="362" fill="none" viewBox="0 0 513 362"><path fill="url(#atl-__a)" d="M508.501 14.278c16.727 226.571-128.914 333.661-259.477 345.081C127.639 369.975 13.38 295.388 3.356 180.791c-8.268-94.676 50.246-134.983 96.22-139 47.286-4.145 87.022 28.464 90.469 67.945 3.32 37.96-20.365 55.237-36.839 56.675-13.027 1.142-29.416-6.767-30.896-23.748-1.269-14.592 4.272-16.58 2.918-32.081-2.411-27.597-26.477-30.811-39.651-29.67-15.945 1.396-44.875 20.006-40.815 66.361 4.082 46.756 48.914 83.701 107.683 78.562 63.42-5.541 107.576-54.92 110.896-124.177a25.2 25.2 0 0 1 2.263-10.637l.021-.084a30 30 0 0 1 2.389-4.166c1.354-2.03 3.088-4.272 5.33-6.725.021-.064.021-.064.063-.064 1.628-1.84 3.594-3.827 5.814-5.963C306.924 47.88 406.698-13.763 501.057 5.755a9.45 9.45 0 0 1 7.444 8.523"/><defs><linearGradient id="atl-__a" x1="457.5" x2="77.699" y1="87.5" y2="302.912" gradientUnits="userSpaceOnUse"><stop stop-color="#0cc5ff"/><stop offset="1" stop-color="#007fff"/></linearGradient></defs></svg>