<svg xmlns="http://www.w3.org/2000/svg" width="40" height="40" fill="none" viewBox="0 0 40 40"><rect width="40" height="40" fill="#000" rx="8"/><path fill="#fff" d="M23.558 15.897h-7.11a.547.547 0 0 0-.548.547v7.11c0 .303.245.547.547.547h7.111a.547.547 0 0 0 .547-.547v-7.11a.547.547 0 0 0-.547-.547"/><path stroke="#fff" stroke-opacity=".15" d="M16.447 16.397h7.111c.026 0 .047.02.047.047v7.11a.047.047 0 0 1-.047.047h-7.11a.047.047 0 0 1-.048-.047v-7.11c0-.026.021-.047.047-.047Z"/><path fill="#fff" d="M15.35 7.691H8.24a.547.547 0 0 0-.548.547v7.111c0 .302.245.547.547.547h7.111a.547.547 0 0 0 .547-.547V8.24a.547.547 0 0 0-.547-.548"/><path stroke="#fff" stroke-opacity=".15" d="M8.24 8.191h7.11c.026 0 .047.021.047.047v7.111a.047.047 0 0 1-.047.047H8.24a.047.047 0 0 1-.048-.047V8.24c0-.027.021-.048.047-.048Z"/><path fill="#fff" d="M31.76 7.691h-7.11a.547.547 0 0 0-.547.547v7.111c0 .302.244.547.546.547h7.111a.547.547 0 0 0 .547-.547V8.24a.547.547 0 0 0-.547-.548"/><path stroke="#fff" stroke-opacity=".15" d="M24.65 8.191h7.11c.026 0 .047.021.047.047v7.111a.047.047 0 0 1-.047.047h-7.11a.047.047 0 0 1-.047-.047V8.24c0-.027.02-.048.046-.048Z"/><path fill="#fff" d="M15.35 24.1H8.24a.547.547 0 0 0-.548.547v7.11c0 .303.245.547.547.547h7.111a.547.547 0 0 0 .547-.547v-7.11a.547.547 0 0 0-.547-.547"/><path stroke="#fff" stroke-opacity=".15" d="M8.24 24.6h7.11c.026 0 .047.02.047.047v7.11a.047.047 0 0 1-.047.047H8.24a.047.047 0 0 1-.048-.046v-7.111c0-.026.021-.047.047-.047Z"/><path fill="#fff" d="M31.76 24.1h-7.11a.547.547 0 0 0-.547.547v7.11c0 .303.244.547.546.547h7.111a.547.547 0 0 0 .547-.547v-7.11a.547.547 0 0 0-.547-.547"/><path stroke="#fff" stroke-opacity=".15" d="M24.65 24.6h7.11c.026 0 .047.02.047.047v7.11a.047.047 0 0 1-.047.047h-7.11a.047.047 0 0 1-.047-.046v-7.111c0-.026.02-.047.046-.047Z"/></svg>