<svg xmlns="http://www.w3.org/2000/svg" fill="none" viewBox="0 0 150 150"><circle cx="75" cy="75" r="75" fill="#e7eefc"/><path fill="#3b99fc" d="M42.065 54.133c18.176-17.795 47.645-17.795 65.82 0l2.188 2.142c.909.89.909 2.332 0 3.222l-7.483 7.327a1.18 1.18 0 0 1-1.646 0l-3.01-2.948c-12.68-12.414-33.238-12.414-45.918 0l-3.224 3.157a1.18 1.18 0 0 1-1.645 0l-7.483-7.327a2.245 2.245 0 0 1 0-3.222zm81.296 15.152 6.66 6.52c.908.89.908 2.333 0 3.223l-30.03 29.402c-.909.89-2.382.89-3.291 0L75.387 87.562a.59.59 0 0 0-.823 0L53.251 108.43a2.36 2.36 0 0 1-3.29 0L19.93 79.027a2.245 2.245 0 0 1 0-3.222l6.66-6.52a2.36 2.36 0 0 1 3.29 0l21.314 20.867a.59.59 0 0 0 .823 0l21.312-20.867a2.36 2.36 0 0 1 3.291 0l21.314 20.867a.59.59 0 0 0 .823 0l21.313-20.867a2.36 2.36 0 0 1 3.291 0"/></svg>